<svg width="25" height="24" viewBox="0 0 25 24" fill="none" xmlns="http://www.w3.org/2000/svg">
<path d="M5.68988 5.87994C5.63048 5.87994 5.55825 5.85121 5.51344 5.80639C5.4187 5.71165 5.4187 5.54823 5.51344 5.45349L9.14344 1.82349C9.23817 1.72876 9.40159 1.72876 9.49633 1.82349C9.59107 1.91823 9.59107 2.08165 9.49633 2.17639L5.87365 5.79907C5.8074 5.85878 5.73848 5.87994 5.68988 5.87994Z" fill="#C1C2C3" stroke="#C1C2C3"/>
<path d="M19.3101 5.87994C19.2456 5.87994 19.185 5.85768 19.1337 5.80639L15.5037 2.17639C15.4089 2.08165 15.4089 1.91823 15.5037 1.82349C15.5984 1.72876 15.7618 1.72876 15.8566 1.82349L19.4866 5.45349C19.5813 5.54823 19.5813 5.71165 19.4866 5.80639C19.4417 5.85121 19.3695 5.87994 19.3101 5.87994Z" fill="#C1C2C3" stroke="#C1C2C3"/>
<path d="M20.71 10.6001C20.64 10.6001 20.57 10.6001 20.5 10.6001H20.27H4.5C3.8 10.6101 3 10.6101 2.42 10.0301C1.96 9.5801 1.75 8.8801 1.75 7.8501C1.75 5.1001 3.76 5.1001 4.72 5.1001H20.28C21.24 5.1001 23.25 5.1001 23.25 7.8501C23.25 8.8901 23.04 9.5801 22.58 10.0301C22.06 10.5501 21.36 10.6001 20.71 10.6001ZM4.72 9.1001H20.51C20.96 9.1101 21.38 9.1101 21.52 8.9701C21.59 8.9001 21.74 8.6601 21.74 7.8501C21.74 6.7201 21.46 6.6001 20.27 6.6001H4.72C3.53 6.6001 3.25 6.7201 3.25 7.8501C3.25 8.6601 3.41 8.9001 3.47 8.9701C3.61 9.1001 4.04 9.1001 4.48 9.1001H4.72Z" fill="#C1C2C3"/>
<path d="M10.2598 18.3C9.84977 18.3 9.50977 17.96 9.50977 17.55V14C9.50977 13.59 9.84977 13.25 10.2598 13.25C10.6698 13.25 11.0098 13.59 11.0098 14V17.55C11.0098 17.97 10.6698 18.3 10.2598 18.3Z" fill="#C1C2C3"/>
<path d="M14.8604 18.3C14.4504 18.3 14.1104 17.96 14.1104 17.55V14C14.1104 13.59 14.4504 13.25 14.8604 13.25C15.2704 13.25 15.6104 13.59 15.6104 14V17.55C15.6104 17.97 15.2704 18.3 14.8604 18.3Z" fill="#C1C2C3"/>
<path d="M15.3902 22.7502H9.36024C5.78024 22.7502 4.98024 20.6202 4.67024 18.7702L3.26024 10.1202C3.19024 9.71024 3.47024 9.33024 3.88024 9.26024C4.29024 9.19024 4.67024 9.47024 4.74024 9.88024L6.15024 18.5202C6.44024 20.2902 7.04024 21.2502 9.36024 21.2502H15.3902C17.9602 21.2502 18.2502 20.3502 18.5802 18.6102L20.2602 9.86024C20.3402 9.45024 20.7302 9.18024 21.1402 9.27024C21.5502 9.35024 21.8102 9.74024 21.7302 10.1502L20.0502 18.9002C19.6602 20.9302 19.0102 22.7502 15.3902 22.7502Z" fill="#C1C2C3"/>
</svg>
