<svg width="32" height="32" viewBox="0 0 32 32" fill="none" xmlns="http://www.w3.org/2000/svg">
<rect width="32" height="32" rx="4" fill="#E7EAEC"/>
<path d="M19 13L15 17L13 15M24 14.165C24 20.7333 19.0319 23.6781 16.9258 24.6314L16.9231 24.6325C16.7016 24.7328 16.5906 24.7831 16.3389 24.8263C16.1795 24.8537 15.8215 24.8537 15.6621 24.8263C15.4094 24.7829 15.2972 24.7325 15.074 24.6314C12.9678 23.6781 8 20.7333 8 14.165V10.2002C8 9.08009 8 8.51962 8.21799 8.0918C8.40973 7.71547 8.71547 7.40973 9.0918 7.21799C9.51962 7 10.0801 7 11.2002 7H20.8002C21.9203 7 22.4796 7 22.9074 7.21799C23.2837 7.40973 23.5905 7.71547 23.7822 8.0918C24 8.5192 24 9.07899 24 10.1969V14.165Z" stroke="#122E3E" stroke-width="2" stroke-linecap="round" stroke-linejoin="round"/>
</svg>
