<svg width="32" height="32" viewBox="0 0 32 32" fill="none" xmlns="http://www.w3.org/2000/svg">
<rect width="32" height="32" rx="4" fill="#E7EAEC"/>
<path d="M16 12.45V16.45M17.246 7.45879L18.467 8.49929C18.7746 8.76143 19.1566 8.91991 19.5594 8.95206L21.1585 9.0795C22.0986 9.15452 22.8453 9.9008 22.9204 10.8409L23.0475 12.4402C23.0797 12.8431 23.2387 13.2256 23.5008 13.5332L24.5409 14.7538C25.1526 15.4716 25.1527 16.5275 24.541 17.2454L23.5009 18.4662C23.2388 18.7738 23.08 19.1564 23.0478 19.5593L22.9199 21.1583C22.8449 22.0984 22.0993 22.8452 21.1591 22.9202L19.5595 23.0478C19.1567 23.08 18.7744 23.2381 18.4667 23.5002L17.246 24.5407C16.5282 25.1525 15.4717 25.1526 14.7539 24.5409L13.5332 23.5003C13.2256 23.2382 12.8433 23.0798 12.4404 23.0477L10.8408 22.9202C9.90064 22.8452 9.15505 22.0986 9.08003 21.1585L8.9521 19.5594C8.91995 19.1565 8.76111 18.7742 8.49898 18.4666L7.45894 17.2454C6.84721 16.5276 6.84693 15.472 7.45865 14.7542L8.49963 13.533C8.76176 13.2254 8.91908 12.8431 8.95122 12.4402L9.07915 10.8411C9.15417 9.90099 9.90192 9.15442 10.842 9.0794L12.4399 8.95196C12.8428 8.91981 13.2252 8.76146 13.5328 8.49932L14.754 7.45879C15.4718 6.84707 16.5282 6.84707 17.246 7.45879ZM16.0498 19.45V19.55L15.9501 19.5496V19.45H16.0498Z" stroke="#122E3E" stroke-width="2" stroke-linecap="round" stroke-linejoin="round"/>
</svg>
