<svg width="20" height="20" viewBox="0 0 20 20" fill="none" xmlns="http://www.w3.org/2000/svg">
<path d="M18.3072 15.2743C18.3072 15.5743 18.2405 15.8827 18.0989 16.1827C17.9572 16.4827 17.7739 16.766 17.5322 17.0327C17.1239 17.4827 16.6739 17.8077 16.1655 18.016C15.6655 18.2243 15.1239 18.3327 14.5405 18.3327C13.6905 18.3327 12.7822 18.1327 11.8239 17.7243C10.8655 17.316 9.90719 16.766 8.95719 16.0743C7.99886 15.3743 7.09053 14.5993 6.22386 13.741C5.36553 12.8743 4.59053 11.966 3.89886 11.016C3.21553 10.066 2.66553 9.11602 2.26553 8.17435C1.86553 7.22435 1.66553 6.31602 1.66553 5.44935C1.66553 4.88268 1.76553 4.34102 1.96553 3.84102C2.16553 3.33268 2.48219 2.86602 2.92386 2.44935C3.45719 1.92435 4.04053 1.66602 4.65719 1.66602C4.89053 1.66602 5.12386 1.71602 5.33219 1.81602C5.54886 1.91602 5.74053 2.06602 5.89053 2.28268L7.82386 5.00768C7.97386 5.21602 8.08219 5.40768 8.15719 5.59102C8.23219 5.76602 8.27386 5.94102 8.27386 6.09935C8.27386 6.29935 8.21553 6.49935 8.09886 6.69102C7.99053 6.88268 7.83219 7.08268 7.63219 7.28268L6.99886 7.94102C6.90719 8.03268 6.86553 8.14102 6.86553 8.27435C6.86553 8.34102 6.87386 8.39935 6.89053 8.46602C6.91553 8.53268 6.94053 8.58268 6.95719 8.63268C7.10719 8.90768 7.36553 9.26602 7.73219 9.69935C8.10719 10.1327 8.50719 10.5743 8.94053 11.016C9.39053 11.4577 9.82386 11.866 10.2655 12.241C10.6989 12.6077 11.0572 12.8577 11.3405 13.0077C11.3822 13.0243 11.4322 13.0493 11.4905 13.0743C11.5572 13.0993 11.6239 13.1077 11.6989 13.1077C11.8405 13.1077 11.9489 13.0577 12.0405 12.966L12.6739 12.341C12.8822 12.1327 13.0822 11.9743 13.2739 11.8743C13.4655 11.7577 13.6572 11.6993 13.8655 11.6993C14.0239 11.6993 14.1905 11.7327 14.3739 11.8077C14.5572 11.8827 14.7489 11.991 14.9572 12.1327L17.7155 14.091C17.9322 14.241 18.0822 14.416 18.1739 14.6243C18.2572 14.8327 18.3072 15.041 18.3072 15.2743Z" stroke="#5A5D61" stroke-width="1.25" stroke-miterlimit="10"/>
<path d="M15.4157 7.4987C15.4157 6.9987 15.024 6.23203 14.4407 5.60703C13.9074 5.03203 13.199 4.58203 12.499 4.58203" stroke="#5A5D61" stroke-width="1.25" stroke-linecap="round" stroke-linejoin="round"/>
<path d="M18.3324 7.49935C18.3324 4.27435 15.724 1.66602 12.499 1.66602" stroke="#5A5D61" stroke-width="1.25" stroke-linecap="round" stroke-linejoin="round"/>
</svg>
