<svg width="25" height="24" viewBox="0 0 25 24" fill="none" xmlns="http://www.w3.org/2000/svg">
<path d="M3.61304 19.2776L3.61301 19.2774L2.28301 11.3175L2.28282 11.3164C2.19568 10.8018 2.27432 10.1853 2.49723 9.59874C2.72013 9.01224 3.07102 8.49841 3.48172 8.17069L3.4824 8.17013L10.4124 2.62009L10.4136 2.61912C11.5679 1.68881 13.4175 1.69425 14.5875 2.63026L14.5876 2.63037L21.5161 8.16914C21.5163 8.16936 21.5166 8.16959 21.5169 8.16981C21.923 8.49747 22.2718 9.01146 22.495 9.59874C22.7181 10.1857 22.7993 10.8031 22.7165 11.3187C22.7164 11.3192 22.7163 11.3197 22.7162 11.3202L21.3869 19.2763C21.3868 19.2765 21.3868 19.2768 21.3867 19.2771C21.127 20.8071 19.6448 22.0598 18.0999 22.0598H6.89985C5.32348 22.0598 3.87273 20.8358 3.61304 19.2776ZM10.7287 3.0184L10.7273 3.01954L3.79729 8.56959L3.79584 8.57076C3.42293 8.87171 3.13915 9.32546 2.96402 9.78391C2.78896 10.2422 2.69791 10.7695 2.77666 11.242L2.77669 11.2422L4.10669 19.2022L4.10705 19.2043C4.32806 20.4935 5.58547 21.5598 6.89985 21.5598H18.0999C19.4154 21.5598 20.6722 20.4923 20.8928 19.1935L20.893 19.1922L22.223 11.2323L22.223 11.2321C22.3021 10.7579 22.2075 10.2274 22.0316 9.76941C21.8559 9.31152 21.5723 8.85683 21.203 8.56009L21.2021 8.55931L14.2721 3.01927L14.2721 3.01922L14.2661 3.0146C13.7653 2.62647 13.1229 2.43984 12.4899 2.43984C11.8673 2.43984 11.2219 2.62637 10.7287 3.0184Z" fill="#C1C2C3" stroke="#C1C2C3"/>
<path d="M12.5 15.75C10.9861 15.75 9.75 14.5139 9.75 13C9.75 11.4861 10.9861 10.25 12.5 10.25C14.0139 10.25 15.25 11.4861 15.25 13C15.25 14.5139 14.0139 15.75 12.5 15.75ZM12.5 10.75C11.2639 10.75 10.25 11.7639 10.25 13C10.25 14.2361 11.2639 15.25 12.5 15.25C13.7361 15.25 14.75 14.2361 14.75 13C14.75 11.7639 13.7361 10.75 12.5 10.75Z" fill="#C1C2C3" stroke="#C1C2C3"/>
</svg>
