<svg width="25" height="24" viewBox="0 0 25 24" fill="none" xmlns="http://www.w3.org/2000/svg">
<path d="M13.9604 3.41444L13.962 3.41567L20.8899 8.95402C20.8902 8.95426 20.8905 8.95449 20.8908 8.95473C21.1468 9.16127 21.3966 9.52025 21.5633 9.95719C21.7299 10.3938 21.7835 10.8297 21.7303 11.1576C21.7302 11.1581 21.7301 11.1585 21.7301 11.159L20.4009 19.114C20.4008 19.1144 20.4008 19.1147 20.4007 19.1151C20.2213 20.1654 19.163 21.0598 18.1003 21.0598H6.90027C5.82666 21.0598 4.77919 20.1745 4.59987 19.1154C4.59984 19.1152 4.59981 19.115 4.59978 19.1149L3.27001 11.1562L3.27002 11.1562L3.26923 11.1517C3.21277 10.8262 3.26365 10.3925 3.42975 9.95719C3.59581 9.52194 3.84707 9.16354 4.10695 8.95697L4.10695 8.95697L4.1091 8.95525L11.0391 3.40525L11.0395 3.40496C11.8238 2.77599 13.1634 2.7738 13.9604 3.41444ZM9.25027 12.9998C9.25027 14.7941 10.7061 16.2498 12.5003 16.2498C14.2945 16.2498 15.7503 14.7941 15.7503 12.9998C15.7503 11.2056 14.2945 9.74985 12.5003 9.74985C10.7061 9.74985 9.25027 11.2056 9.25027 12.9998Z" fill="#122E3E" stroke="#122E3E" stroke-width="1.5"/>
</svg>
