<svg width="32" height="32" viewBox="0 0 32 32" fill="none" xmlns="http://www.w3.org/2000/svg">
<rect width="32" height="32" rx="4" fill="#E7EAEC"/>
<path d="M26 20.7397V8.6697C26 7.4697 25.02 6.5797 23.83 6.6797H23.77C21.67 6.8597 18.48 7.9297 16.7 9.0497L16.53 9.1597C16.24 9.3397 15.76 9.3397 15.47 9.1597L15.22 9.0097C13.44 7.8997 10.26 6.8397 8.16 6.6697C6.97 6.5697 6 7.4697 6 8.6597V20.7397C6 21.6997 6.78 22.5997 7.74 22.7197L8.03 22.7597C10.2 23.0497 13.55 24.1497 15.47 25.1997L15.51 25.2197C15.78 25.3697 16.21 25.3697 16.47 25.2197C18.39 24.1597 21.75 23.0497 23.93 22.7597L24.26 22.7197C25.22 22.5997 26 21.6997 26 20.7397Z" stroke="#122E3E" stroke-width="1.5" stroke-linecap="round" stroke-linejoin="round"/>
<path d="M16 9.49023V24.4902" stroke="#122E3E" stroke-width="1.5" stroke-linecap="round" stroke-linejoin="round"/>
<path d="M11.75 12.4902H9.5" stroke="#122E3E" stroke-width="1.5" stroke-linecap="round" stroke-linejoin="round"/>
<path d="M12.5 15.4902H9.5" stroke="#122E3E" stroke-width="1.5" stroke-linecap="round" stroke-linejoin="round"/>
</svg>
