<svg width="24" height="24" viewBox="0 0 24 24" fill="none" xmlns="http://www.w3.org/2000/svg">
<path d="M20.9996 11.4002L20.9995 11.4002L21.0038 11.4044C21.3362 11.7315 21.3301 12.2601 20.9966 12.573L20.988 12.5811L20.9796 12.5896L19.4596 14.1096C19.2396 14.3295 19.0744 14.6153 18.9646 14.8801C18.8549 15.1445 18.7699 15.462 18.7699 15.7699V17.9199C18.7699 18.3857 18.3857 18.7699 17.9199 18.7699H15.7699C15.462 18.7699 15.1445 18.8549 14.8801 18.9646C14.6153 19.0744 14.3295 19.2396 14.1096 19.4596L12.5896 20.9796C12.2624 21.3067 11.7173 21.3067 11.3902 20.9796L9.87021 19.4596C9.65026 19.2396 9.36448 19.0744 9.09964 18.9646C8.83522 18.8549 8.51775 18.7699 8.20988 18.7699H6.05988C5.5941 18.7699 5.20988 18.3857 5.20988 17.9199V15.7699C5.20988 15.462 5.12483 15.1445 5.01519 14.8801C4.90538 14.6153 4.74017 14.3295 4.52021 14.1096L3.00021 12.5896C2.67311 12.2624 2.67311 11.7173 3.00021 11.3902L4.52021 9.87021C4.74017 9.65026 4.90538 9.36448 5.01519 9.09964C5.12483 8.83522 5.20988 8.51775 5.20988 8.20988V6.05988C5.20988 5.5941 5.5941 5.20988 6.05988 5.20988H8.20988C8.52045 5.20988 8.83985 5.12602 9.10714 5.01519C9.36962 4.90636 9.6548 4.74128 9.87265 4.51783L11.4067 3.00367L11.4067 3.00368L11.4102 3.00021C11.7373 2.67311 12.2824 2.67311 12.6096 3.00021L14.1296 4.52021C14.3495 4.74017 14.6353 4.90538 14.9001 5.01519C15.1645 5.12483 15.482 5.20988 15.7899 5.20988H17.9399C18.4057 5.20988 18.7899 5.5941 18.7899 6.05988V8.21988C18.7899 8.52775 18.8749 8.84522 18.9846 9.10964C19.0944 9.37448 19.2596 9.66026 19.4796 9.88021L20.9996 11.4002ZM8.99988 7.24988C8.03567 7.24988 7.24988 8.03567 7.24988 8.99988C7.24988 9.9641 8.03567 10.7499 8.99988 10.7499C9.97898 10.7499 10.7499 9.95919 10.7499 8.99988C10.7499 8.03567 9.9641 7.24988 8.99988 7.24988ZM8.99988 16.4999C9.37806 16.4999 9.76215 16.3583 10.0602 16.0602L16.0602 10.0602C16.6431 9.47732 16.6431 8.52245 16.0602 7.93955C15.4773 7.35666 14.5224 7.35666 13.9396 7.93955L7.93955 13.9396C7.35666 14.5224 7.35666 15.4773 7.93955 16.0602C8.23762 16.3583 8.6217 16.4999 8.99988 16.4999ZM13.2399 14.9999C13.2399 15.9689 14.0305 16.7499 14.9999 16.7499C15.9739 16.7499 16.7399 15.9542 16.7399 14.9999C16.7399 14.0357 15.9541 13.2499 14.9899 13.2499C14.0257 13.2499 13.2399 14.0357 13.2399 14.9999Z" fill="#122E3E" stroke="#122E3E" stroke-width="1.5"/>
</svg>
