<svg width="25" height="24" viewBox="0 0 25 24" fill="none" xmlns="http://www.w3.org/2000/svg">
<path d="M11.1064 20.9207L11.1056 20.9202L5.95772 17.943C4.87413 17.2131 4.492 16.9015 4.30413 16.5746C4.12809 16.2682 4.08008 15.8715 4.08008 14.7095V9.27945C4.08008 8.11686 4.12802 7.72185 4.30031 7.41979C4.48334 7.09888 4.85441 6.7958 5.91807 6.07571L11.1143 3.07942C11.1144 3.07937 11.1145 3.07932 11.1146 3.07927C11.1146 3.07924 11.1147 3.07921 11.1147 3.07918C11.4721 2.87357 11.9711 2.75195 12.5051 2.75195C13.0391 2.75195 13.5381 2.87358 13.8954 3.07919C13.8956 3.07926 13.8957 3.07934 13.8959 3.07942L19.0424 6.05588C20.1276 6.78681 20.5091 7.09566 20.6968 7.42072C20.8719 7.72391 20.9201 8.11688 20.9201 9.27945V14.7195C20.9201 15.882 20.8721 16.2771 20.6998 16.5791C20.5168 16.9 20.1457 17.2031 19.0821 17.9232L13.8854 20.9197L13.8854 20.9197L13.8781 20.924C13.5322 21.1287 13.0331 21.2495 12.5001 21.2495C11.9688 21.2495 11.4662 21.1294 11.1064 20.9207ZM8.50008 11.9995C8.50008 14.2037 10.2959 15.9995 12.5001 15.9995C14.7043 15.9995 16.5001 14.2037 16.5001 11.9995C16.5001 9.79524 14.7043 7.99945 12.5001 7.99945C10.2959 7.99945 8.50008 9.79524 8.50008 11.9995Z" fill="#122E3E" stroke="#122E3E" stroke-width="1.5"/>
</svg>
